{
  "accessors": [
    {
      "bufferView": 2,
      "componentType": 5126,
      "count": 65532,
      "max": [
        2.556384563446045,
        0.6902658343315125,
        0.6009181141853333
      ],
      "min": [
        -1.2422579526901245,
        -0.7876203656196594,
        -1.8585760593414307
      ],
      "type": "VEC3"
    },
    {
      "bufferView": 2,
      "byteOffset": 786384,
      "componentType": 5126,
      "count": 65532,
      "max": [
        0.9999847412109375,
        0.9999878406524658,
        0.9999958872795105
      ],
      "min": [
        -0.9992952942848206,
        -0.9999809861183167,
        -0.9999731183052063
      ],
      "type": "VEC3"
    },
    {
      "bufferView": 1,
      "componentType": 5126,
      "count": 65532,
      "max": [
        0.9852110147476196,
        0.9994710087776184
      ],
      "min": [
        0.002263000002130866,
        0.003131000092253089
      ],
      "type": "VEC2"
    },
    {
      "bufferView": 0,
      "componentType": 5125,
      "count": 334077,
      "type": "SCALAR"
    },
    {
      "bufferView": 2,
      "byteOffset": 1572768,
      "componentType": 5126,
      "count": 65532,
      "max": [
        2.5556788444519043,
        0.6444653868675232,
        -0.3990178108215332
      ],
      "min": [
        -1.1240588426589966,
        -0.7718985080718994,
        -1.8866068124771118
      ],
      "type": "VEC3"
    },
    {
      "bufferView": 2,
      "byteOffset": 2359152,
      "componentType": 5126,
      "count": 65532,
      "max": [
        0.9999681711196899,
        0.9999985694885254,
        0.9998400807380676
      ],
      "min": [
        -0.9999085664749146,
        -0.9999769926071167,
        -0.999912440776825
      ],
      "type": "VEC3"
    },
    {
      "bufferView": 1,
      "byteOffset": 524256,
      "componentType": 5126,
      "count": 65532,
      "max": [
        0.993802011013031,
        1.0000040531158447
      ],
      "min": [
        0.00215000007301569,
        0.003378000110387802
      ],
      "type": "VEC2"
    },
    {
      "bufferView": 0,
      "byteOffset": 1336308,
      "componentType": 5125,
      "count": 310737,
      "type": "SCALAR"
    },
    {
      "bufferView": 2,
      "byteOffset": 3145536,
      "componentType": 5126,
      "count": 65532,
      "max": [
        2.581118106842041,
        0.6865128874778748,
        0.5690218210220337
      ],
      "min": [
        -1.2325176000595093,
        -0.7853755354881287,
        -1.887705683708191
      ],
      "type": "VEC3"
    },
    {
      "bufferView": 2,
      "byteOffset": 3931920,
      "componentType": 5126,
      "count": 65532,
      "max": [
        0.9997183680534363,
        0.9999995827674866,
        0.9999942779541016
      ],
      "min": [
        -0.9999387264251709,
        -0.9999953508377075,
        -0.9999472498893738
      ],
      "type": "VEC3"
    },
    {
      "bufferView": 1,
      "byteOffset": 1048512,
      "componentType": 5126,
      "count": 65532,
      "max": [
        0.999521017074585,
        1.0012940168380737
      ],
      "min": [
        0.0019039999460801482,
        0.0006280000088736415
      ],
      "type": "VEC2"
    },
    {
      "bufferView": 0,
      "byteOffset": 2579256,
      "componentType": 5125,
      "count": 266964,
      "type": "SCALAR"
    },
    {
      "bufferView": 2,
      "byteOffset": 4718304,
      "componentType": 5126,
      "count": 12117,
      "max": [
        1.5079602003097534,
        0.6917329430580139,
        0.015190882608294487
      ],
      "min": [
        -1.2422579526901245,
        -0.7821779847145081,
        -0.703416645526886
      ],
      "type": "VEC3"
    },
    {
      "bufferView": 2,
      "byteOffset": 4863708,
      "componentType": 5126,
      "count": 12117,
      "max": [
        0.9999584555625916,
        0.999919593334198,
        0.9998605251312256
      ],
      "min": [
        -0.999987006187439,
        -0.9999200105667114,
        -0.9997024536132813
      ],
      "type": "VEC3"
    },
    {
      "bufferView": 1,
      "byteOffset": 1572768,
      "componentType": 5126,
      "count": 12117,
      "max": [
        0.9909089803695679,
        0.999422013759613
      ],
      "min": [
        0.007724999915808439,
        0.003792000003159046
      ],
      "type": "VEC2"
    },
    {
      "bufferView": 0,
      "byteOffset": 3647112,
      "componentType": 5125,
      "count": 43623,
      "type": "SCALAR"
    }
  ],
  "asset": {
    "extras": {
      "author": "James (https://sketchfab.com/james)",
      "license": "CC-BY-4.0 (http://creativecommons.org/licenses/by/4.0/)",
      "source": "https://sketchfab.com/3d-models/gomphothere-skull-c2c29d5f3939457bbe067ae66f2b1102",
      "title": "Gomphothere (?) Skull"
    },
    "generator": "Sketchfab-12.63.0",
    "version": "2.0"
  },
  "bufferViews": [
    {
      "buffer": 0,
      "byteLength": 3821604,
      "name": "floatBufferViews",
      "target": 34963
    },
    {
      "buffer": 0,
      "byteLength": 1669704,
      "byteOffset": 3821604,
      "byteStride": 8,
      "name": "floatBufferViews",
      "target": 34962
    },
    {
      "buffer": 0,
      "byteLength": 5009112,
      "byteOffset": 5491308,
      "byteStride": 12,
      "name": "floatBufferViews",
      "target": 34962
    }
  ],
  "buffers": [
    {
      "byteLength": 10500420,
      "uri": "scene.bin"
    }
  ],
  "extensionsUsed": [
    "KHR_materials_unlit"
  ],
  "images": [
    {
      "uri": "textures/mesh_baseColor.jpeg"
    }
  ],
  "materials": [
    {
      "doubleSided": true,
      "extensions": {
        "KHR_materials_unlit": {}
      },
      "name": "mesh",
      "pbrMetallicRoughness": {
        "baseColorTexture": {
          "index": 0
        },
        "metallicFactor": 0.0
      }
    }
  ],
  "meshes": [
    {
      "name": "Object_0",
      "primitives": [
        {
          "attributes": {
            "NORMAL": 1,
            "POSITION": 0,
            "TEXCOORD_0": 2
          },
          "indices": 3,
          "material": 0,
          "mode": 4
        }
      ]
    },
    {
      "name": "Object_1",
      "primitives": [
        {
          "attributes": {
            "NORMAL": 5,
            "POSITION": 4,
            "TEXCOORD_0": 6
          },
          "indices": 7,
          "material": 0,
          "mode": 4
        }
      ]
    },
    {
      "name": "Object_2",
      "primitives": [
        {
          "attributes": {
            "NORMAL": 9,
            "POSITION": 8,
            "TEXCOORD_0": 10
          },
          "indices": 11,
          "material": 0,
          "mode": 4
        }
      ]
    },
    {
      "name": "Object_3",
      "primitives": [
        {
          "attributes": {
            "NORMAL": 13,
            "POSITION": 12,
            "TEXCOORD_0": 14
          },
          "indices": 15,
          "material": 0,
          "mode": 4
        }
      ]
    }
  ],
  "nodes": [
    {
      "children": [
        1
      ],
      "matrix": [
        1.0,
        0.0,
        0.0,
        0.0,
        0.0,
        2.220446049250313e-16,
        -1.0,
        0.0,
        0.0,
        1.0,
        2.220446049250313e-16,
        0.0,
        0.0,
        0.0,
        0.0,
        1.0
      ],
      "name": "Sketchfab_model"
    },
    {
      "children": [
        2,
        3,
        4,
        5
      ],
      "name": "mesh.obj.cleaner.materialmerger.gles"
    },
    {
      "mesh": 0,
      "name": "Object_2"
    },
    {
      "mesh": 1,
      "name": "Object_3"
    },
    {
      "mesh": 2,
      "name": "Object_4"
    },
    {
      "mesh": 3,
      "name": "Object_5"
    }
  ],
  "samplers": [
    {
      "magFilter": 9729,
      "minFilter": 9987,
      "wrapS": 10497,
      "wrapT": 10497
    }
  ],
  "scene": 0,
  "scenes": [
    {
      "name": "Sketchfab_Scene",
      "nodes": [
        0
      ]
    }
  ],
  "textures": [
    {
      "sampler": 0,
      "source": 0
    }
  ]
}
